# xmcd
#
# Track frame offsets: 
#        150
#        15602
#        30345
#        46762
#        60737
#        74645
#        87762
#        102042
#        120767
#        134647
#
# Disc length: 2000 seconds
#
# Revision: 0
# Processed by: cddbd v1.5.2PL0 Copyright (c) Steve Scherf et al.
# Submitted via: ExactAudioCopyFreeDBPlugin 1.0
#
DISCID=7807ce0a
DTITLE=Gail Franx - Gail Franx
DYEAR=1900
DGENRE=
TTITLE0=Dreamer
TTITLE1=Nashville Seems
TTITLE2=High On The Ridge
TTITLE3=One Last Chance
TTITLE4=Smallsville USA
TTITLE5=Channel 22
TTITLE6=No Time To Lose
TTITLE7=To Have But Not To Hold
TTITLE8=Who'll Be There
TTITLE9=And That Is Why
EXTD=
EXTT0=
EXTT1=
EXTT2=
EXTT3=
EXTT4=
EXTT5=
EXTT6=
EXTT7=
EXTT8=
EXTT9=
PLAYORDER=
